<?xml version="1.0" standalone="no"?><!DOCTYPE svg PUBLIC "-//W3C//DTD SVG 1.1//EN" "http://www.w3.org/Graphics/SVG/1.1/DTD/svg11.dtd"><svg t="1539524921761" class="icon" style="" viewBox="0 0 1024 1024" version="1.1" xmlns="http://www.w3.org/2000/svg" p-id="4567" xmlns:xlink="http://www.w3.org/1999/xlink" width="200" height="200"><defs><style type="text/css"></style></defs><path d="M510.784 15.648C241.376 15.648 22.144 234.88 22.144 504.288c0 232.576 163.424 427.616 381.472 476.672a169.92 169.92 0 0 1-49.312-92.096c-151.648-61.92-258.816-210.912-258.816-384.576 0-167.84 100.128-312.64 243.744-378.016-5.696 32.416 18.624 69.76 46.304 103.264 25.056 30.304 14.304 53.184-5.024 69.184a18.816 18.816 0 0 0 11.712 33.344c248.864 3.712 309.376-137.792 323.136-188.928 125.696 71.456 210.656 206.528 210.656 361.152 0 164.448-96.096 306.88-235.072 374.112a169.856 169.856 0 0 1-43.616 94.944c203.136-59.264 352.032-247.04 352.032-469.056C999.424 234.88 780.224 15.648 510.784 15.648z" fill="" p-id="4568"></path><path d="M380.512 492.48m-55.008 0a55.008 55.008 0 1 0 110.016 0 55.008 55.008 0 1 0-110.016 0Z" fill="" p-id="4569"></path><path d="M637.216 492.48m-55.008 0a55.008 55.008 0 1 0 110.016 0 55.008 55.008 0 1 0-110.016 0Z" fill="" p-id="4570"></path><path d="M359.68 806.4a170.88 170.88 0 0 1 73.984-93.408c2.752-44.992 39.616-80.672 84.8-80.672 43.776 0 79.808 33.408 84.512 76.384a171.264 171.264 0 0 1 81.312 98.4c22.016-22.944 34.944-50.784 34.944-80.8 0-78.528-88.16-142.144-196.864-142.144-108.736 0-196.896 63.616-196.896 142.144 0 29.728 12.64 57.248 34.208 80.096z" fill="" p-id="4571"></path><path d="M540.8 801.248a59.968 59.968 0 0 0-18.944-3.104 60.16 60.16 0 0 0-20.448 3.648c5.696 1.472 4.704 1.728-1.216 0.416a60.512 60.512 0 0 0-38.72 56.32c0 0.992 0.096 2.016 0.16 3.008a269.184 269.184 0 0 0 120.384 0.256c0.032-1.088 0.16-2.144 0.16-3.264a60.384 60.384 0 0 0-41.376-57.28zM520.064 657.536c-30.688 0-56.928 18.88-67.872 45.6a168.992 168.992 0 0 1 134.912-2.016 73.44 73.44 0 0 0-67.04-43.584z" fill="" p-id="4572"></path><path d="M521.888 706.464a152.256 152.256 0 0 0-152.064 152.064 152.256 152.256 0 0 0 152.064 152.064 152.256 152.256 0 0 0 152.032-152.064 152.224 152.224 0 0 0-152.032-152.064z m0 230.752a78.784 78.784 0 0 1-78.72-78.688 78.816 78.816 0 0 1 78.72-78.72 78.816 78.816 0 0 1 78.688 78.72 78.784 78.784 0 0 1-78.688 78.688z" fill="" p-id="4573"></path></svg>