<?xml version="1.0" standalone="no"?><!DOCTYPE svg PUBLIC "-//W3C//DTD SVG 1.1//EN" "http://www.w3.org/Graphics/SVG/1.1/DTD/svg11.dtd"><svg t="1539525065523" class="icon" style="" viewBox="0 0 1024 1024" version="1.1" xmlns="http://www.w3.org/2000/svg" p-id="6756" xmlns:xlink="http://www.w3.org/1999/xlink" width="200" height="200"><defs><style type="text/css"></style></defs><path d="M722.65728 865.66912c-51.47648-13.59872-117.67296-21.79072-188.79488-23.50592v-179.05664c75.68384-4.86912 146.17088-36.64896 200.27904-90.76224 57.30816-57.30304 89.57952-132.9664 91.35616-213.72416 0.08704-0.95744 0.08704-1.93024 0.03584-2.91328 0.02048-1.36704 0.0512-2.73408 0.0512-4.10624 0-2.41664-0.44032-4.72576-1.20832-6.88128l-28.54912-256.13824a20.46976 20.46976 0 0 0-20.34176-18.19648H250.62912a20.46464 20.46464 0 0 0-20.34176 18.19648l-29.6448 265.87648a20.48 20.48 0 0 0 0.78848 8.31488c2.76992 79.19616 34.89792 153.25696 91.22304 209.57696 54.11328 54.10816 124.5952 85.888 200.27392 90.76224v178.7904c-76.90752 0.83456-148.97664 9.20064-204.1344 23.77216-68.3008 18.048-102.93248 43.52512-102.93248 75.71968a20.46976 20.46976 0 0 0 20.46464 20.46976h598.784a20.46976 20.46976 0 0 0 20.46976-20.46976c0-32.19968-34.63168-57.67168-102.92224-75.7248zM242.14528 351.60576v-0.01024l3.25632-29.18912c0.3328-0.29184 0.6656-0.57344 0.98304-0.88576 58.47552-58.46528 153.6256-58.46528 212.10624 0 0.75776 0.75776 1.57184 1.41824 2.41152 2.03264 36.1472 32.43008 81.77664 48.65024 127.42144 48.65024 48.88576 0 97.77664-18.60608 134.99392-55.81312a20.46464 20.46464 0 0 0-28.93824-28.94848c-58.48064 58.46528-153.63072 58.46528-212.11136 0a20.44416 20.44416 0 0 0-2.41152-2.03264c-63.85152-57.28256-157.32224-63.9744-228.09088-20.06016l17.17248-154.02496h488.22784l27.40736 245.90336c-3.00544 146.97984-123.48928 265.6256-271.1808 265.6256-149.56032-0.00512-271.24736-121.68192-271.24736-271.24736z m11.71456 569.3184c10.74688-4.99712 25.45664-10.40896 45.39392-15.67744 54.89152-14.50496 128.22016-22.49216 206.47424-22.49216 78.2592 0 151.58784 7.9872 206.47936 22.49216 19.93728 5.26336 34.64192 10.68032 45.38368 15.67744H253.85984z" p-id="6757"></path></svg>