<?xml version="1.0" standalone="no"?><!DOCTYPE svg PUBLIC "-//W3C//DTD SVG 1.1//EN" "http://www.w3.org/Graphics/SVG/1.1/DTD/svg11.dtd"><svg t="1539525017685" class="icon" style="" viewBox="0 0 1024 1024" version="1.1" xmlns="http://www.w3.org/2000/svg" p-id="5791" xmlns:xlink="http://www.w3.org/1999/xlink" width="200" height="200"><defs><style type="text/css"></style></defs><path d="M552.865733 412.342256c-24.826432-27.662013-60.311621-43.545772-97.342002-43.545772l-73.890894 0c-37.030381 0-72.516594 15.883759-97.357352 43.545772L165.250648 545.056883c-5.943362 6.637164-5.661953 16.788361 0.581238 23.076578l40.530089 40.770566c3.272533 3.27765 7.605212 5.202489 12.32163 4.88424 4.603855-0.152473 8.93551-2.208295 11.95631-5.702885l85.415368-98.331539 0 433.44283c0 9.267061 7.442506 16.756639 16.624632 16.756639l57.305147 0c9.163707 0 16.620539-7.490601 16.620539-16.756639L406.605601 690.713264l24.028253 0 0 252.484432c0 9.267061 7.438413 16.756639 16.620539 16.756639l57.256028 0c9.182127 0 16.604166-7.490601 16.570397-16.756639L521.080819 509.770216l85.435835 98.31619c3.054569 3.494591 7.40669 5.550413 12.004405 5.702885 4.451382 0.347924 9.05012-1.62194 12.287861-4.88424l40.485063-40.770566c6.293333-6.303566 6.510274-16.439414 0.562818-23.076578L552.865733 412.342256zM852.849992 65.044412l-85.636403 0c-10.289344 0-18.643616 8.351202-18.643616 18.682501 0 10.29139 8.337899 18.661012 18.643616 18.661012l66.976414 0 0 177.061648L788.66618 279.449573c-10.326183 0-18.642592 8.372691-18.642592 18.681478 0 10.292414 8.316409 18.665105 18.642592 18.665105l45.5228 0 0 177.041182L788.66618 493.837338c-10.326183 0-18.642592 8.355295-18.642592 18.665105 0 10.308787 8.316409 18.676361 18.642592 18.676361l45.5228 0 0 177.027879L788.66618 708.206684c-10.326183 0-18.642592 8.311293-18.642592 18.661012 0 10.347672 8.316409 18.681478 18.642592 18.681478l45.5228 0 0 177.061648-66.976414 0c-10.305717 0-18.643616 8.350179-18.643616 18.659989 0 10.331299 8.337899 18.681478 18.643616 18.681478l85.619006 0c10.288321 0 18.60473-8.351202 18.622126-18.681478L871.453698 83.705424C871.453698 73.395614 863.138312 65.044412 852.849992 65.044412zM418.593634 344.597339c51.277874 0 93.02365-42.042535 93.02365-93.684706 0-51.642171-41.745776-93.665263-93.02365-93.665263-51.293223 0-93.02058 42.023092-93.02058 93.665263C325.573053 302.570153 367.30041 344.597339 418.593634 344.597339z" p-id="5792"></path></svg>