<?xml version="1.0" standalone="no"?><!DOCTYPE svg PUBLIC "-//W3C//DTD SVG 1.1//EN" "http://www.w3.org/Graphics/SVG/1.1/DTD/svg11.dtd"><svg t="1539524794364" class="icon" style="" viewBox="0 0 1131 1024" version="1.1" xmlns="http://www.w3.org/2000/svg" p-id="1677" xmlns:xlink="http://www.w3.org/1999/xlink" width="220.8984375" height="200"><defs><style type="text/css"></style></defs><path d="M649.431579 582.063158c-148.210526 0-272.168421-121.263158-272.168421-272.168421s121.263158-269.473684 272.168421-269.473684c148.210526 0 272.168421 121.263158 272.168421 272.168421s-123.957895 269.473684-272.168421 269.473684z m0-514.694737c-134.736842 0-245.221053 110.484211-245.221053 245.221053s110.484211 245.221053 245.221053 245.221052 245.221053-110.484211 245.221053-245.221052-110.484211-245.221053-245.221053-245.221053z" fill="#1afa29" p-id="1678"></path><path d="M1121.010526 951.242105H183.242105v-13.473684c0-10.778947 24.252632-269.473684 237.136842-342.231579 8.084211-2.694737 13.473684 0 16.168421 8.084211 2.694737 8.084211 0 13.473684-8.08421 16.168421-167.073684 56.589474-207.494737 250.610526-215.578947 304.505263h875.789473c-78.147368-371.873684-417.684211-344.926316-431.157895-342.231579-8.084211 0-13.473684-5.389474-13.473684-13.473684s5.389474-13.473684 13.473684-13.473685c2.694737 0 388.042105-32.336842 463.494737 379.957895v16.168421zM312.589474 471.578947h-5.389474c-75.452632-35.031579-123.957895-110.484211-123.957895-194.021052 0-118.568421 97.010526-212.884211 212.884211-212.884211 8.084211 0 18.863158 0 26.947368 2.694737 8.084211 0 13.473684 8.084211 10.778948 16.168421 0 8.084211-8.084211 13.473684-16.168421 10.778947-8.084211 0-16.168421-2.694737-24.252632-2.694736-102.4 0-185.936842 83.536842-185.936842 185.936842 0 72.757895 43.115789 137.431579 107.789474 169.768421 8.084211 2.694737 10.778947 10.778947 5.389473 18.863158 0 2.694737-2.694737 5.389474-8.08421 5.389473zM118.568421 778.778947H40.421053v-13.473684c-2.694737-196.715789 196.715789-272.168421 196.715789-274.863158 8.084211-2.694737 13.473684 0 16.168421 8.084211 2.694737 8.084211 0 13.473684-8.08421 16.168421-8.084211 2.694737-172.463158 67.368421-180.547369 234.442105h48.505263c8.084211 0 13.473684 5.389474 13.473685 13.473684s-2.694737 16.168421-8.084211 16.168421z" fill="#1afa29" p-id="1679"></path></svg>