<?xml version="1.0" standalone="no"?><!DOCTYPE svg PUBLIC "-//W3C//DTD SVG 1.1//EN" "http://www.w3.org/Graphics/SVG/1.1/DTD/svg11.dtd"><svg t="1537893178510" class="icon" style="" viewBox="0 0 1024 1024" version="1.1" xmlns="http://www.w3.org/2000/svg" p-id="1147" xmlns:xlink="http://www.w3.org/1999/xlink" width="200" height="200"><defs><style type="text/css"></style></defs><path d="M768 728.615385v-7.876923-11.815385c-11.815385-110.276923-122.092308-196.923077-256-196.923077s-244.184615 86.646154-256 192.984615v23.63077c0 43.323077 35.446154 78.769231 78.769231 78.76923h354.461538c43.323077 0 78.769231-35.446154 78.769231-78.76923zM512 1024C228.430769 1024 0 795.569231 0 512S228.430769 0 512 0s512 228.430769 512 512-228.430769 512-512 512z m0-555.323077c94.523077 0 169.353846-74.830769 169.353846-169.353846S606.523077 126.030769 512 126.030769s-169.353846 78.769231-169.353846 173.292308 74.830769 169.353846 169.353846 169.353846z" p-id="1148" fill="#1296db"></path></svg>