<?xml version="1.0" standalone="no"?><!DOCTYPE svg PUBLIC "-//W3C//DTD SVG 1.1//EN" "http://www.w3.org/Graphics/SVG/1.1/DTD/svg11.dtd"><svg t="1539524869052" class="icon" style="" viewBox="0 0 1377 1024" version="1.1" xmlns="http://www.w3.org/2000/svg" p-id="3223" xmlns:xlink="http://www.w3.org/1999/xlink" width="268.9453125" height="200"><defs><style type="text/css"></style></defs><path d="M1318.13181 288.735492l-616.415492-219.428571c-5.98146-2.145524-12.483048-2.145524-18.399492 0L72.492698 286.004825C62.415238 289.580698 55.523556 298.682921 55.003429 309.020444 54.548317 319.357968 60.399746 329.045333 70.087111 333.596444L193.097143 391.135492C156.493206 435.216254 151.356952 513.690413 150.966857 548.148825c-28.151873 18.919619-35.693714 40.374857-36.668952 55.913651-2.145524 32.117841 21.455238 58.839365 37.384127 73.077841-24.706032 123.270095-107.341206 200.443937-108.121397 201.289143-5.916444 5.461333-8.97219 13.263238-8.192 21.195175 0.715175 7.866921 5.20127 15.018667 12.092952 19.309714l87.641397 54.873397c4.356063 2.730667 9.362286 4.161016 14.433524 4.161016 3.055746 0 6.176508-0.520127 9.102222-1.560381 133.087492-46.876444 111.567238-261.558857 103.830349-315.652063 17.48927-22.105397 24.836063-44.405841 21.715302-66.381206C281.323683 574.025143 270.140952 559.396571 261.03873 550.619429 232.171683 354.596571 398.612317 456.801524 379.172571 449.714794l303.949206 110.331937c6.046476 2.145524 12.678095 2.145524 18.659556 0l616.415492-222.744381c10.467556-3.770921 17.424254-13.458286 17.359238-24.315937S1328.599365 292.506413 1318.13181 288.735492zM219.753651 584.297651c0.130032 0.065016 10.337524 6.956698 11.637841 17.424254 1.430349 11.702857-8.387048 25.031111-16.904127 34.133333-5.461333 5.916444-7.866921 13.913397-6.501587 21.780317 10.987683 61.635048 20.740063 223.459556-56.173714 265.199746l-48.956952-30.622476c31.727746-36.798984 87.186286-114.297905 104.155429-221.314032 1.495365-9.622349-2.730667-19.309714-10.922667-25.031111-10.07746-6.891683-29.387175-25.876317-28.541968-38.359365C168.131048 598.276063 182.044444 589.758984 190.366476 585.467937 199.338667 580.85181 204.8 571.619556 204.474921 561.737143 202.459429 506.538667 215.917714 421.432889 250.896254 412.460698 227.425524 442.563048 206.230349 490.089651 207.660698 563.102476 207.855746 571.489524 212.601905 579.551492 219.753651 584.297651zM692.484063 508.229079 149.991619 313.571556l542.427429-192.446984 539.56673 192.056889L692.484063 508.229079zM1082.644317 450.364952l-376.116825 123.400127L324.819302 450.299937c-8.061968-2.600635-17.099175-1.365333-24.055873 3.575873C293.80673 458.752 289.645714 466.553905 289.645714 474.810921l0 82.310095c0 8.842159 4.681143 17.16419 12.418032 21.845333 15.148698 9.29727 23.79581 20.154921 26.396444 33.223111 4.681143 23.210667-10.532571 50.25727-16.774095 58.579302-7.736889 10.272508-6.631619 24.510984 2.665651 33.54819 96.288508 93.687873 260.128508 113.387683 380.732952 113.387683 85.430857 0 148.756317-9.687365 152.527238-10.272508 239.908571-47.656635 266.695111-121.189587 269.685841-135.493079 0.325079-1.625397 0.520127-3.380825 0.520127-5.071238L1117.817905 474.875937c0-8.322032-4.096-16.188952-11.117714-21.000127C1099.678476 448.999619 1090.771302 447.699302 1082.644317 450.364952zM1064.504889 661.731556 1064.504889 661.731556c-6.176508 10.142476-44.210794 58.514286-226.38527 94.728127-1.430349 0.195048-319.227937 48.436825-470.909968-75.353397 9.492317-18.529524 19.829841-47.461587 13.783365-78.344127C376.571937 579.876571 363.503746 559.786667 343.088762 543.857778L343.088762 510.764698l355.116698 114.818032c5.461333 1.820444 11.442794 1.820444 16.969143 0l349.330286-114.622984L1064.504889 661.731556z" p-id="3224" fill="#1afa29"></path></svg>