<?xml version="1.0" standalone="no"?><!DOCTYPE svg PUBLIC "-//W3C//DTD SVG 1.1//EN" "http://www.w3.org/Graphics/SVG/1.1/DTD/svg11.dtd"><svg t="1539312029159" class="icon" style="" viewBox="0 0 1024 1024" version="1.1" xmlns="http://www.w3.org/2000/svg" p-id="12460" id="mx_n_1539312029161" xmlns:xlink="http://www.w3.org/1999/xlink" width="200" height="200"><defs><style type="text/css"></style></defs><path d="M512 512m-512 0a512 512 0 1 0 1024 0 512 512 0 1 0-1024 0Z" fill="#FFFFFF" p-id="12461"></path><path d="M685.6 306.4H350.4L499.2 176c11.2-9.6 27.2-9.6 38.4 0l148 130.4z m-268-25.6h200L520 195.2c-1.6-0.8-3.2-0.8-4 0L417.6 280.8z" fill="#333333" p-id="12462"></path><path d="M208 288h624c17.6 0 32 14.4 32 32v464c0 17.6-14.4 32-32 32H208c-17.6 0-32-14.4-32-32V320c0-17.6 14.4-32 32-32z" fill="#bfbfbf" p-id="12463" data-spm-anchor-id="a313x.7781069.0.i11" class="selected"></path><path d="M832 827.2H208c-24 0-43.2-19.2-43.2-43.2V320c0-24 19.2-43.2 43.2-43.2h624c24 0 43.2 19.2 43.2 43.2v464c0 24-19.2 43.2-43.2 43.2z m-624-528c-11.2 0-20.8 8.8-20.8 20.8v464c0 11.2 8.8 20.8 20.8 20.8h624c11.2 0 20.8-8.8 20.8-20.8V320c0-11.2-8.8-20.8-20.8-20.8H208z" fill="#333333" p-id="12464"></path><path d="M744 452.8H536c-7.2 0-12.8-5.6-12.8-12.8s5.6-12.8 12.8-12.8h208c7.2 0 12.8 5.6 12.8 12.8s-5.6 12.8-12.8 12.8zM744 512.8H536c-7.2 0-12.8-5.6-12.8-12.8s5.6-12.8 12.8-12.8h208c7.2 0 12.8 5.6 12.8 12.8s-5.6 12.8-12.8 12.8zM664 576.8H536c-7.2 0-12.8-5.6-12.8-12.8s5.6-12.8 12.8-12.8h128c7.2 0 12.8 5.6 12.8 12.8s-5.6 12.8-12.8 12.8zM288 752h96c17.6 0 32 14.4 32 32s-14.4 32-32 32H288c-17.6 0-32-14.4-32-32s14.4-32 32-32z" fill="#FFFFFF" p-id="12465"></path><path d="M384 827.2H288c-24 0-43.2-19.2-43.2-43.2s19.2-43.2 43.2-43.2h96c24 0 43.2 19.2 43.2 43.2s-19.2 43.2-43.2 43.2z m-96-64c-11.2 0-20.8 8.8-20.8 20.8s8.8 20.8 20.8 20.8h96c11.2 0 20.8-8.8 20.8-20.8s-8.8-20.8-20.8-20.8H288z" fill="#333333" p-id="12466"></path><path d="M520 216m-24 0a24 24 0 1 0 48 0 24 24 0 1 0-48 0Z" fill="#333333" p-id="12467"></path></svg>