<?xml version="1.0" standalone="no"?><!DOCTYPE svg PUBLIC "-//W3C//DTD SVG 1.1//EN" "http://www.w3.org/Graphics/SVG/1.1/DTD/svg11.dtd"><svg t="1539310617091" class="icon" style="" viewBox="0 0 1024 1024" version="1.1" xmlns="http://www.w3.org/2000/svg" p-id="6499" xmlns:xlink="http://www.w3.org/1999/xlink" width="200" height="200"><defs><style type="text/css"></style></defs><path d="M512 128c-211.7 0-384 172.3-384 384s172.3 384 384 384 384-172.3 384-384-172.3-384-384-384z m0 717.4c-183.8 0-333.4-149.6-333.4-333.4S328.2 178.6 512 178.6 845.4 328.2 845.4 512 695.8 845.4 512 845.4z" p-id="6500" fill="#1296db"></path><path d="M688.7 309.9H473.5c-14 0-25.3 11.3-25.3 25.3s11.3 25.3 25.3 25.3h154.1L494.9 493.3c-24-16.9-53.1-26.9-84.6-26.9-81.2 0-147.3 66.1-147.3 147.3 0 81.2 66.1 147.3 147.3 147.3 81.2 0 147.3-66.1 147.3-147.3 0-31.5-10-60.7-26.9-84.6l132.7-132.7v154.1c0 14 11.3 25.3 25.3 25.3s25.3-11.3 25.3-25.3V335.3c0.1-14-11.3-25.4-25.3-25.4zM410.3 710.4c-53.3 0-96.6-43.4-96.6-96.6 0-53.3 43.4-96.6 96.6-96.6s96.6 43.4 96.6 96.6c0 53.2-43.3 96.6-96.6 96.6z" p-id="6501" fill="#1296db"></path></svg>