<?xml version="1.0" standalone="no"?><!DOCTYPE svg PUBLIC "-//W3C//DTD SVG 1.1//EN" "http://www.w3.org/Graphics/SVG/1.1/DTD/svg11.dtd"><svg t="1544274505703" class="icon" style="" viewBox="0 0 1024 1024" version="1.1" xmlns="http://www.w3.org/2000/svg" p-id="5151" xmlns:xlink="http://www.w3.org/1999/xlink" width="200" height="200"><defs><style type="text/css"></style></defs><path d="M612.952021 820.522246c-19.022765 0-38.165325-4.522501-55.647143-13.544979-102.066009-52.673781-184.038268-117.056714-243.641704-191.360072-44.363927-55.30619-75.732702-115.047851-93.237046-177.568336-3.04913-10.891068 3.30715-22.190667 14.198218-25.239798 10.88902-3.04913 22.191691 3.30715 25.239797 14.198218 26.930232 96.186859 103.652007 233.872814 316.221863 343.575984 22.401587 11.561713 48.780969 12.011199 70.561058 1.20716a165.313453 165.313453 0 0 0 3.450493-1.76313c19.338122-10.162062 24.44219-28.989265 25.764027-39.309005 2.747084-21.440159-5.134785-43.489529-20.565761-57.540308-9.89278-9.007119-13.151807-11.220759-23.990657-17.579087-16.392404-9.615307-40.413778-21.796471-59.709921-16.562369-24.432976 6.621466-49.978914 4.627962-73.876398-5.767546-30.205641-13.140544-58.413682-39.641768-83.843921-78.766474-2.509543-3.494521-16.328923-23.188955-28.058553-48.941719-18.166797-39.885453-22.348345-73.910186-12.427921-101.130177 6.135121-16.835746 5.66311-34.060569-1.330027-48.501448l-12.181163-25.154815c-8.79927-18.170893-26.026141-30.549666-46.079959-33.115523-20.200234-2.584287-39.34177 4.796903-52.50484 20.251428-0.350169 0.411602-0.695218 0.821156-1.035148 1.233782a53.350569 53.350569 0 0 0-3.874382 5.325227c-6.075736 9.53954-18.735054 12.348057-28.272545 6.270274-9.538516-6.075736-12.346009-18.73403-6.270274-28.272545a94.535332 94.535332 0 0 1 6.841602-9.405411c0.464844-0.563137 0.947094-1.137537 1.434463-1.709888 21.970531-25.795767 55.193562-38.627098 88.879389-34.317565 33.827123 4.327963 62.890108 25.220343 77.742589 55.889805l12.182188 25.154814c11.862735 24.496456 12.91017 53.041355 2.94879 80.374998-12.71768 34.898107 22.191691 94.307006 35.42336 112.367319 0.232422 0.317404 0.454605 0.639928 0.667573 0.968596 35.445886 54.71336 74.492777 78.131665 112.922265 67.715679 33.791287-9.158654 66.46142 6.284608 91.147296 20.765419 13.261363 7.779481 18.593757 11.471611 30.84045 22.622746 25.151743 22.901243 38.033244 58.547811 33.616203 93.026125-3.969603 30.993009-21.223095 56.637241-47.334219 70.359352a196.2481 196.2481 0 0 1-4.308509 2.200329c-16.194794 8.035452-33.990945 12.042939-51.891533 12.04294zM597.262003 515.308173c-9.560017 0-18.10946-6.728974-20.057914-16.462028-12.325532-61.565201-57.118467-86.744589-57.57-86.991345-9.918377-5.434783-13.552146-17.881133-8.117363-27.798486 5.436831-9.918377 17.880109-13.551122 27.798487-8.118387 2.524901 1.384293 62.016734 34.802886 78.047706 114.868671 2.219783 11.089702-4.969939 21.879406-16.059641 24.099189a20.58931 20.58931 0 0 1-4.041275 0.402386zM692.969683 525.74566c-10.382197 0-19.279761-7.864463-20.348697-18.415601-5.623178-55.518134-27.746268-101.702529-65.752891-137.269234-28.793703-26.944566-56.490825-37.509015-56.767274-37.612427-10.619739-3.888716-16.041211-15.636777-12.152495-26.257539 3.88974-10.619739 15.684899-16.062713 26.305662-12.175021 1.389412 0.508871 34.431216 12.829283 69.10714 44.756076 31.87355 29.347625 71.626922 81.697858 80.007423 164.429839 1.139584 11.2525-7.058665 21.297839-18.310142 22.437423-0.700338 0.072696-1.398627 0.106484-2.088726 0.106484z" fill="#1afa29" p-id="5152"></path><path d="M780.319388 536.980754c-11.282192 0-20.443918-9.127938-20.476682-20.417297-0.242661-82.671573-30.276289-151.357896-89.264371-204.150447-44.794983-40.09023-90.457197-55.685027-90.912826-55.837586-10.706769-3.588718-16.509127-15.173981-12.943958-25.888941 3.565169-10.713936 15.1105-16.526533 25.831603-12.985937 2.13992 0.706481 52.973779 17.826867 104.008319 63.01195 30.099157 26.649687 54.137937 57.626314 71.44467 92.068792 21.605004 42.990897 32.636345 91.325452 32.789928 143.662374 0.032764 11.308813-9.108484 20.504328-20.417297 20.538116l-0.059386-0.001024z" fill="#1afa29" p-id="5153"></path></svg>