<?xml version="1.0" standalone="no"?><!DOCTYPE svg PUBLIC "-//W3C//DTD SVG 1.1//EN" "http://www.w3.org/Graphics/SVG/1.1/DTD/svg11.dtd"><svg t="1544274303918" class="icon" style="" viewBox="0 0 1024 1024" version="1.1" xmlns="http://www.w3.org/2000/svg" p-id="4350" xmlns:xlink="http://www.w3.org/1999/xlink" width="200" height="200"><defs><style type="text/css"></style></defs><path d="M339.3 855.8c-1.4 0-2.8-0.7-3.5-2.1l-19.5-35c-1.1-1.9-0.4-4.4 1.5-5.4s4.4-0.4 5.4 1.5l19.5 35c1.1 1.9 0.4 4.4-1.5 5.4-0.6 0.4-1.2 0.6-1.9 0.6z" fill="#84C8D8" p-id="4351"></path><path d="M312.1 848c-1.4 0-2.8-0.7-3.5-2.1-1.1-1.9-0.4-4.4 1.5-5.4l35-19.5c1.9-1.1 4.4-0.4 5.4 1.5 1.1 1.9 0.4 4.4-1.5 5.4l-35 19.5c-0.6 0.4-1.3 0.6-1.9 0.6z" fill="#84C8D8" p-id="4352"></path><path d="M141.7 693.8c-1.8 0-3.4-1.2-3.9-3l-8-30c-0.6-2.1 0.7-4.3 2.8-4.9 2.1-0.6 4.3 0.7 4.9 2.8l8 30c0.6 2.1-0.7 4.3-2.8 4.9-0.3 0.1-0.6 0.2-1 0.2z" fill="#ACD598" p-id="4353"></path><path d="M122.7 682.8c-1.8 0-3.4-1.2-3.9-3-0.6-2.1 0.7-4.3 2.8-4.9l30-8.1c2.1-0.6 4.3 0.7 4.9 2.8 0.6 2.1-0.7 4.3-2.8 4.9l-30 8.1c-0.3 0.2-0.6 0.2-1 0.2z" fill="#ACD598" p-id="4354"></path><path d="M459.6 468.1c-0.8 0-1.6-0.2-2.3-0.8l-24.7-17.8c-1.8-1.3-2.2-3.8-0.9-5.6 1.3-1.8 3.8-2.2 5.6-0.9l24.7 17.8c1.8 1.3 2.2 3.8 0.9 5.6-0.9 1.1-2.1 1.7-3.3 1.7z" fill="#FFF100" p-id="4355"></path><path d="M438.3 471.6c-0.8 0-1.6-0.2-2.3-0.8-1.8-1.3-2.2-3.8-0.9-5.6l17.7-24.7c1.3-1.8 3.8-2.2 5.6-0.9 1.8 1.3 2.2 3.8 0.9 5.6l-17.7 24.7c-0.8 1.1-2 1.7-3.3 1.7z" fill="#FFF100" p-id="4356"></path><path d="M50.9 540.8c-3.3 0-6.4-1.1-8.9-3.2h-0.7l-0.6-1.2c-5-5.4-5-14 0.4-19.3 2.6-2.6 6.1-4.1 9.8-4.1 3.7 0 7.2 1.5 9.8 4.1 2.6 2.6 4.1 6.1 4.1 9.8 0 3.7-1.5 7.2-4.1 9.8-2.5 2.5-6 4.1-9.8 4.1z m-5.7-8.3c1.5 1.5 3.6 2.4 5.7 2.4s4.2-0.8 5.7-2.3c1.5-1.5 2.3-3.5 2.3-5.7 0-2.1-0.8-4.2-2.3-5.7-1.5-1.5-3.5-2.3-5.7-2.3-2.1 0-4.2 0.8-5.7 2.3-3 3.1-3 8.2 0 11.3z" fill="#FF8A8A" p-id="4357"></path><path d="M194.1 834.6c-4.5 0-9-1.7-12.4-5.1-6.8-6.8-6.9-17.9-0.1-24.8l0.1-0.1c6.8-6.8 18-6.8 24.8 0 3.3 3.3 5.1 7.7 5.1 12.4s-1.8 9.1-5.1 12.4c-3.4 3.4-7.9 5.2-12.4 5.2z m-8.5-26c-4.6 4.7-4.6 12.2 0 16.9 4.6 4.6 12.2 4.6 16.9 0 2.2-2.2 3.5-5.3 3.5-8.4s-1.3-6.2-3.5-8.4c-4.6-4.8-12.2-4.8-16.9-0.1z m-2-2.1z" fill="#85E5E2" p-id="4358"></path><path d="M938.9 845.5c-11.6 0-21.1-9.5-21.1-21.1s9.5-21.1 21.1-21.1 21.1 9.5 21.1 21.1-9.5 21.1-21.1 21.1z m0-35.2c-7.7 0-14.1 6.3-14.1 14.1s6.3 14.1 14.1 14.1 14.1-6.3 14.1-14.1-6.4-14.1-14.1-14.1z" fill="#5D8AED" p-id="4359"></path><path d="M428.6 120c-6.6 0-11.9-5.4-11.9-11.9s5.4-11.9 11.9-11.9 11.9 5.4 11.9 11.9-5.3 11.9-11.9 11.9z m0-19.9c-4.4 0-8 3.6-8 8s3.6 8 8 8 8-3.6 8-8-3.6-8-8-8z" fill="#5FB6F2" p-id="4360"></path><path d="M487 304.2c-9.9 0-18-8.1-18-18s8.1-18 18-18 18 8.1 18 18-8.1 18-18 18z m0-30.4c-6.9 0-12.5 5.6-12.5 12.5s5.6 12.5 12.5 12.5 12.5-5.6 12.5-12.5-5.6-12.5-12.5-12.5z" fill="#FF8700" p-id="4361"></path><path d="M626.7 71.9m-8.5 0a8.5 8.5 0 1 0 17 0 8.5 8.5 0 1 0-17 0Z" fill="#D3D462" p-id="4362"></path><path d="M764.3 527.4m-9 0a9 9 0 1 0 18 0 9 9 0 1 0-18 0Z" fill="#C7A2FC" p-id="4363"></path><path d="M91.3 840m-8.5 0a8.5 8.5 0 1 0 17 0 8.5 8.5 0 1 0-17 0Z" fill="#FF455C" p-id="4364"></path><path d="M270.1 51.9m-8 0a8 8 0 1 0 16 0 8 8 0 1 0-16 0Z" fill="#F78282" p-id="4365"></path><path d="M902.1 673.8m-12 0a12 12 0 1 0 24 0 12 12 0 1 0-24 0Z" fill="#F2ED62" p-id="4366"></path><path d="M386.4 359.3m-6 0a6 6 0 1 0 12 0 6 6 0 1 0-12 0Z" fill="#B4DB61" p-id="4367"></path><path d="M36.9 734.1m-4 0a4 4 0 1 0 8 0 4 4 0 1 0-8 0Z" fill="#BAE29A" p-id="4368"></path><path d="M927.1 532.2c-3.1 0-6.2-1.2-8.6-3.5-4.7-4.7-4.7-12.4-0.1-17.1l0.1-0.1c4.7-4.7 12.5-4.7 17.2 0 4.7 4.7 4.7 12.5 0 17.2-2.4 2.2-5.5 3.5-8.6 3.5z m-5-17.2c-2.8 2.8-2.8 7.2 0 10s7.2 2.8 10 0 2.8-7.2 0-10c-2.7-2.7-7.2-2.7-10 0z m-1.8-1.8z" fill="#FF8A8A" p-id="4369"></path><path d="M564.9 548.3c-2.9 0-5.7-1.1-7.9-3.3-4.4-4.4-4.4-11.5 0-15.9s11.6-4.4 15.9 0c4.4 4.4 4.4 11.6 0 15.9-2.2 2.3-5.1 3.3-8 3.3z m-4.6-15.8c-2.5 2.5-2.5 6.7 0 9.2 2.5 2.5 6.7 2.5 9.2 0s2.5-6.7 0-9.2c-2.5-2.5-6.7-2.6-9.2 0z" fill="#B3D465" p-id="4370"></path><path d="M565 184m-8 0a8 8 0 1 0 16 0 8 8 0 1 0-16 0Z" fill="#D3A884" p-id="4371"></path><path d="M802.3 115.7c86 0 155.8 69.6 155.8 155.4s-69.7 155.4-155.8 155.4H607.6s38.9-115.9 38.9-155.4c0-85.8 69.8-155.4 155.8-155.4z" fill="#FFDF00" p-id="4372"></path><path d="M308 335c19.2-20.1 88-112.1 6-190-80.7-76.7-186-30.8-210 68-26 107 35.8 298.3 140 411 123 133 255 216 432 221 136 3.8 199-109 147-203s-186-59-232-6c-55-19-224-91-283-301z" fill="#358AFE" p-id="4373"></path><path d="M784.6 444.4H578.7c-3.2 0-6.2-1.5-8.1-4.2-1.9-2.6-2.4-6-1.4-9 0.4-1.2 40.7-121.5 40.7-161.2 0-96.1 78.4-174.4 174.7-174.4 96.4 0 174.7 78.2 174.7 174.4s-78.4 174.4-174.7 174.4z m-192.1-20h192.1c85.3 0 154.7-69.3 154.7-154.4s-69.4-154.4-154.7-154.4S629.9 184.9 629.9 270c0 35-26.7 121.2-37.4 154.4zM296.4 359.9c-2.9 0-5.9-1.3-7.8-3.8-3.4-4.3-2.7-10.6 1.6-14 24.3-19.3 40.7-46.7 46.1-77.3 12.1-68.8-34-134.6-102.8-146.7s-134.6 34-146.7 102.8c-1.2 7.2-1.9 14.6-1.9 21.9 0 5.5-4.5 10-10 10s-10-4.5-10-10c0-8.5 0.7-17 2.2-25.3 14-79.7 90.2-133 169.9-119 79.6 14 133 90.2 119 169.9-6.2 35.4-25.2 67.2-53.3 89.5-1.9 1.3-4.1 2-6.3 2zM706 870.5c-5.1 0-9.5-3.9-9.9-9.1-0.5-5.5 3.5-10.4 9-10.9 34.4-3.2 66.4-20.5 87.8-47.6 43.3-54.8 34-134.7-20.9-178-54.8-43.3-134.7-34-178 20.9-3.4 4.3-9.7 5.1-14 1.6-4.3-3.4-5.1-9.7-1.6-14 50.2-63.5 142.6-74.3 206.1-24.2 63.5 50.2 74.3 142.6 24.2 206.1-24.8 31.4-61.9 51.5-101.7 55.1-0.4 0.1-0.7 0.1-1 0.1z" fill="#222222" p-id="4374"></path><path d="M665.9 872c-65.2 0-132.5-13.1-197-38.6-79.4-31.4-155.3-81.9-219.4-146-64.9-65-113.9-137.6-145.6-216.1C72.7 394 59.7 314.9 65.3 236.1c0.4-5.5 5.2-9.7 10.7-9.3s9.7 5.2 9.3 10.7c-11 154.8 52.4 309.5 178.5 435.7s287.1 190.7 441.9 177c5.5-0.5 10.4 3.6 10.8 9.1s-3.6 10.4-9.1 10.8c-13.7 1.3-27.5 1.9-41.5 1.9zM585.1 649.6c-0.9 0-1.8-0.1-2.8-0.4-62.5-18-126.1-57.1-179-110.1-55-55.1-98.7-123.2-116.8-182.3-1.6-5.3 1.4-10.9 6.6-12.5 5.3-1.6 10.9 1.4 12.5 6.6 17.2 56.1 58.9 121.1 111.8 174 49.8 49.9 111.9 88.1 170.4 105 5.3 1.5 8.4 7.1 6.8 12.4-1.2 4.5-5.2 7.3-9.5 7.3zM260 928H74c-5.5 0-10-4.5-10-10s4.5-10 10-10h186c5.5 0 10 4.5 10 10s-4.4 10-10 10zM950 928H380c-5.5 0-10-4.5-10-10s4.5-10 10-10h570c5.5 0 10 4.5 10 10s-4.4 10-10 10z" fill="#222222" p-id="4375"></path><path d="M320 918m-16 0a16 16 0 1 0 32 0 16 16 0 1 0-32 0Z" fill="#222222" p-id="4376"></path><path d="M737.5 233c7.9 0 14.3 6.5 14.3 14.4s-6.5 14.3-14.4 14.3-14.3-6.5-14.3-14.4 6.4-14.3 14.4-14.3z m99.1 0c7.9 0 14.3 6.5 14.3 14.4s-6.5 14.3-14.4 14.3-14.3-6.5-14.3-14.4 6.4-14.3 14.4-14.3zM823.8 297.6c-6.4 20.3-28.1 31.6-48.4 25.2-12.1-3.8-21.6-13.3-25.3-25.5 5.6 0.1 54.9 0.3 73.7 0.3z" fill="#222222" p-id="4377"></path><path d="M787 327.6c-4.2 0-8.4-0.6-12.5-1.9-13.1-4.1-23.2-14.4-27.3-27.5-0.3-0.9-0.1-1.9 0.5-2.7 0.6-0.8 1.5-1.2 2.4-1.2 2 0 9.4 0 19.1 0.1 17.9 0.1 42.5 0.2 54.6 0.2 1 0 1.9 0.5 2.4 1.2s0.7 1.8 0.4 2.7c-3.3 10.6-10.6 19.3-20.5 24.4-6 3.2-12.5 4.7-19.1 4.7z m-32.6-27.2c4.1 9.3 12 16.5 21.9 19.6 9.1 2.9 18.7 2 27.1-2.4 7.2-3.7 12.8-9.7 16-17-13 0-34.3-0.1-50.3-0.2h-14.7z" fill="#222222" p-id="4378"></path><path d="M786.9 306.7c11.1 0 20.7 3.2 25.9 8-14.7 13.3-37.1 13.3-51.8 0 5.3-4.8 14.9-8 25.9-8z" fill="#FF1834" p-id="4379"></path></svg>