<?xml version="1.0" standalone="no"?><!DOCTYPE svg PUBLIC "-//W3C//DTD SVG 1.1//EN" "http://www.w3.org/Graphics/SVG/1.1/DTD/svg11.dtd"><svg t="1545978325412" class="icon" style="" viewBox="0 0 1024 1024" version="1.1" xmlns="http://www.w3.org/2000/svg" p-id="2767" xmlns:xlink="http://www.w3.org/1999/xlink" width="200" height="200"><defs><style type="text/css"></style></defs><path d="M511.281907 0C229.789621 0 0 229.789621 0 511.281907c0 282.928471 229.789621 511.281907 511.281907 511.281908 282.928471 0 511.281907-229.789621 511.281908-511.281908C1024 229.789621 794.210379 0 511.281907 0zM718.092567 347.556802c38.776999 0 68.936886 31.596073 68.936886 68.936887s-31.596073 68.936886-68.936886 68.936886c-38.776999 0-68.936886-31.596073-68.936887-68.936886s30.159888-68.936886 68.936887-68.936887z m-412.185134 0c38.776999 0 68.936886 31.596073 68.936887 68.936887s-31.596073 68.936886-68.936887 68.936886-68.936886-31.596073-68.936886-68.936886 31.596073-68.936886 68.936886-68.936887z m491.175316 311.652174C742.507714 765.486676 631.921459 834.423562 511.281907 834.423562c-119.203366 0-229.789621-67.500701-285.800841-172.342216-4.308555-8.617111-1.436185-18.670407 7.180926-21.542777 7.180926-2.87237 17.234222 0 20.106591 7.180926 50.26648 94.788219 149.363254 155.107994 257.077139 155.107994 109.15007 0 208.246844-61.755961 258.513324-157.980364 4.308555-7.180926 12.925666-10.053296 20.106592-7.180926 10.053296 4.308555 12.925666 14.361851 8.617111 21.542777z" fill="#F39800" p-id="2768"></path></svg>