<?xml version="1.0" standalone="no"?><!DOCTYPE svg PUBLIC "-//W3C//DTD SVG 1.1//EN" "http://www.w3.org/Graphics/SVG/1.1/DTD/svg11.dtd"><svg t="1539310769608" class="icon" style="" viewBox="0 0 1024 1024" version="1.1" xmlns="http://www.w3.org/2000/svg" p-id="9725" xmlns:xlink="http://www.w3.org/1999/xlink" width="200" height="200"><defs><style type="text/css"></style></defs><path d="M900.89 400.89C900.89 186.45 726.44 12 512 12S123.11 186.45 123.11 400.89C123.11 606 282.75 774 484.22 788.37v57H289.78a27.78 27.78 0 0 0 0 55.56h194.44v83.33a27.78 27.78 0 1 0 55.56 0v-83.37h194.44a27.78 27.78 0 0 0 0-55.56H539.78v-57C741.25 774 900.89 606 900.89 400.89z m-722.22 0c0-183.81 149.52-333.33 333.33-333.33s333.33 149.52 333.33 333.33S695.81 734.22 512 734.22 178.67 584.7 178.67 400.89z" p-id="9726" fill="#d4237a"></path></svg>