<?xml version="1.0" standalone="no"?><!DOCTYPE svg PUBLIC "-//W3C//DTD SVG 1.1//EN" "http://www.w3.org/Graphics/SVG/1.1/DTD/svg11.dtd"><svg t="1537930272684" class="icon" style="" viewBox="0 0 1024 1024" version="1.1" xmlns="http://www.w3.org/2000/svg" p-id="6451" xmlns:xlink="http://www.w3.org/1999/xlink" width="200" height="200"><defs><style type="text/css"></style></defs><path d="M844.8 824.32 537.6 824.32l0-87.04c192-12.8 345.6-174.08 345.6-368.64 0-110.08-48.64-207.36-122.88-276.48C693.76 35.84 606.72 0 512 0 307.2 0 140.8 166.4 140.8 371.2c0 194.56 151.04 355.84 345.6 368.64l0 87.04L181.76 826.88c-15.36 0-25.6 10.24-25.6 25.6s10.24 25.6 25.6 25.6L486.4 878.08 486.4 998.4c0 15.36 10.24 25.6 25.6 25.6s25.6-10.24 25.6-25.6l0-122.88 307.2 0c15.36 0 25.6-10.24 25.6-25.6S860.16 824.32 844.8 824.32zM194.56 371.2C194.56 194.56 335.36 51.2 512 51.2c79.36 0 153.6 28.16 212.48 81.92 66.56 61.44 107.52 145.92 107.52 238.08 0 176.64-143.36 317.44-317.44 317.44C335.36 688.64 194.56 545.28 194.56 371.2z" p-id="6452" fill="#1296db"></path></svg>