<?xml version="1.0" standalone="no"?><!DOCTYPE svg PUBLIC "-//W3C//DTD SVG 1.1//EN" "http://www.w3.org/Graphics/SVG/1.1/DTD/svg11.dtd"><svg t="1539312168195" class="icon" style="" viewBox="0 0 1025 1024" version="1.1" xmlns="http://www.w3.org/2000/svg" p-id="17687" xmlns:xlink="http://www.w3.org/1999/xlink" width="200.1953125" height="200"><defs><style type="text/css"></style></defs><path d="M512.016875 999.02497" p-id="17688" fill="#d4237a"></path><path d="M642.403284 295.904111c-32.57379 0-63.071327 11.796264-85.850105 33.187541l-0.410001 0.38125-0.420001 0.35625-2.656253 2.300003c-13.632517 11.757514-25.410031 21.900027-41.1088 21.900027-14.780018 0-24.63503-8.29126-35.062543-17.061271-2.368753-1.977502-4.981256-4.188755-7.94501-6.552508l-0.487501-0.39-0.465001-0.420001c-24.71628-21.817527-55.912568-33.833791-87.831357-33.833791-33.921291 0-66.011331 13.291266-90.37636 37.427546-23.983779 23.720029-37.733796 57.50882-37.733796 92.713863 0 35.196293 13.750017 68.980084 37.718796 92.701363l215.562763 208.367754c1.342502 0.493751 4.232505 1.221251 7.728759 1.221251 2.597503 0 4.262505-0.38125 4.995006-0.640001l216.367764-209.150255c23.760029-23.520029 37.485046-57.32382 37.485046-92.525113 0-35.195043-13.735017-68.985084-37.695046-92.700113C710.288367 309.492878 676.827076 295.904111 642.403284 295.904111zM393.29673 344.580421c-0.791251 6.782508-6.982509 11.690014-13.726267 10.855013-7.685009-0.883751-30.013787 2.538753-46.122556 18.656273-13.291266 13.277516-21.411276 32.54879-21.690026 51.562563-0.1125 6.763758-5.635007 12.183765-12.377515 12.183765l-0.19 0c-6.831258-0.09375-12.290015-5.723757-12.192515-12.553765 0.39-25.312531 11.210014-50.987562 28.968785-68.692584 21.987527-21.991277 51.831313-27.411283 66.490081-25.732531C389.234225 331.655405 394.091731 337.807912 393.29673 344.580421z" p-id="17689" fill="#d4237a"></path><path d="M512.016875 0C229.22903 0 0 229.23403 0 512.011875c0 282.754095 229.22903 511.988125 512.016875 511.988125 282.769095 0 511.998125-229.22903 511.998125-511.988125C1024.015 229.23403 794.78597 0 512.016875 0zM751.645918 536.191905 534.869403 745.73841c-5.117506 5.127506-13.462516 7.212509-21.772527 7.212509-9.847512 0-19.633774-2.910004-23.956279-7.231259L272.382832 536.196905c-60.072573-59.457573-60.072573-161.118947 0-220.576519 29.873786-29.575036 68.642584-44.585054 107.807632-44.585054 36.748795 0 73.82384 13.222516 104.200127 40.033799 13.422516 10.718763 20.053774 18.227522 27.577534 18.227522 7.051259 0 15.707519-7.98251 27.651284-18.227522 28.398785-26.665033 65.48883-39.882549 102.783875-39.882549 39.613798 0 79.400097 14.892518 109.243883 44.443804C811.685991 375.069208 811.685991 476.739332 751.645918 536.191905z" p-id="17690" fill="#d4237a"></path></svg>